<svg xmlns="http://www.w3.org/2000/svg" viewBox="0 0 864.21 222.04"><defs><style>.cls-1{fill:#ec1f26;}.cls-2{fill:#262222;}.cls-3{fill:#f9da1d;}</style></defs><g id="Layer_2" data-name="Layer 2"><g id="Layer_1-2" data-name="Layer 1"><path class="cls-1" d="M265.79,198.92a24.08,24.08,0,0,1-4.37.4q-15.63-1.24-31.25-2.69c-7.44-.68-14.87-1.39-22.29-2.23q-16.06-1.82-32.11-3.85c-9.87-1.27-19.75-2.52-29.57-4.14-15-2.49-30.08-5-45-8A402.32,402.32,0,0,1,45,163.47c-11-3.87-21.74-8.26-31.39-14.86a49.63,49.63,0,0,1-9-7.84c-5.91-6.61-6.11-13.62-1-20.84,3.65-5.13,8.74-8.57,14.07-11.7,11.38-6.66,23.67-11.15,36.18-15.13,18-5.73,36.42-9.91,55.25-13.67a24,24,0,0,1,.51,2.37c.08.79,0,1.6,0,2.45-8.77,2.15-17.3,4.16-25.78,6.36a193.14,193.14,0,0,0-31.91,11c-5.61,2.57-11,5.51-15.46,9.87-3.32,3.24-5.77,6.91-4.74,11.92.66,1.81.89,4,2.06,5.37a43.64,43.64,0,0,0,7.21,6.77c8,6,17.31,9.57,26.64,12.89a327.49,327.49,0,0,0,49.07,13.1c10.5,2,21,4,31.51,5.9,6.65,1.2,13.32,2.21,20,3.21,8.47,1.27,16.93,2.55,25.41,3.63,6.88.87,13.8,1.42,20.69,2.19,8,.89,16,2,24.07,2.77,5.76.57,11.56.71,17.33,1.2,3.24.27,6.45.87,10,1.36Z"/><path class="cls-2" d="M678.93,13.05h18.19c3,7.82,5.93,15.83,9,23.79,2.49,6.44,5.1,12.83,7.66,19.24l3.57,11A70.79,70.79,0,0,0,720,54.86c1.25-8.47,2.55-16.93,3.67-25.42,1-7.17,1.69-14.37,2.51-21.56l-.06,0,.76-1.71,14-1c.38,3.11.87,6,1.09,9,1.46,19.17,2.81,38.36,4.28,57.53,1.09,14,2.33,28.08,3.43,42.12a9.76,9.76,0,0,1-.59,2.74l-16.23,1.95v-66l-1.23-.1-5.79,36.39c-1.25,7.25-2.43,14.51-3.79,21.74a27.73,27.73,0,0,1-1.88,4.88l-7,.63q-9.74-32.94-19.46-65.84a175.08,175.08,0,0,0-.45,17.54c.11,5.89.42,11.77.65,17.66q.12,15.33.23,30.67c0,1.81-.16,3.62-.24,5.42l-13.62-2.23a11.42,11.42,0,0,1-.27-1.69c-.25-13.27-.55-26.54-.69-39.81-.16-15.78-.17-31.56-.25-47.35C679.05,24.68,679,18.86,678.93,13.05Z"/><path class="cls-2" d="M557.26,6.75a10.49,10.49,0,0,1,3-1.29q25.79-1.92,51.57-3.68a13.94,13.94,0,0,1,1.85.14l8.43,11.94c0,12,.1,23.9-.08,35.83,0,2.39-1.05,4.79-1.76,7.15-1,3.45-2.22,6.87-3.34,10.31l-3.63.51h-6.79c1.08,2.06,1.86,3.54,2.64,5,2.55,6.08,5,12.19,7.67,18.25,4.19,9.72,8.5,19.39,12.65,29.12.58,1.36,2.21,2.67.82,4.45-1.77-.3-3.54-.7-5.33-.88-5.23-.51-10.48-.94-16-1.42L591.85,67.05H573.69c.22,2.48.45,5.06.67,7.65.35,10.25.67,20.5,1.07,30.75.18,4.79.59,9.57.71,14.36,0,1.16-.64,2.33-1,3.5L557.22,125V119.3q.12-53.29.22-106.59C557.45,10.72,557.33,8.74,557.26,6.75Zm41.84,46h7.37c-.68-11.26,1.22-22.22.19-33.88-11,.43-21.6-1.05-32.57-1,.16,3.16.28,5.62.4,8.09a196.73,196.73,0,0,0,.61,26.77Z"/><path class="cls-2" d="M448.69,75.15c.22,2.45.52,4.89.62,7.34q.69,16.5,1.25,33c.07,2.36-.18,4.74-.29,7.11l-18.11,1.83v-4.14q.09-43.85.18-87.7c0-9-.11-17.93-.17-26.89.55-.29,1.07-.78,1.63-.82q13.4-1,26.78-2c9.08-.62,18.17-1.19,27.74-1.81,2.86,4.06,5.88,8.36,8.67,12.34,0,12.15.09,23.91-.07,35.66,0,2.23-.94,4.5-1.67,6.68-1.25,3.73-2.69,7.39-4,11.08h-10c1.46,3.15,2.59,5.62,3.73,8.09q9.46,21.75,18.92,43.52a51.52,51.52,0,0,1,1.59,5.12l-21.77-2.13c-5.69-18.39-11.32-36.56-16.91-54.64l-18.08-1.12Zm24.73-22.71h7.72v-34l-31.9-1v8c.07,7.92.12,15.84.21,23.76a32,32,0,0,0,.36,3.25Z"/><path class="cls-2" d="M124.35,23,143.11,3.19l38.4,1,15.78,18.6c-1.9,28.45-3.77,56.52-5.65,84.81l-16.88,16-36.87-4-10.95-12c-.36-8.08-.77-15.53-1-23-.4-12.6-.7-25.21-1-37.81C124.71,38.92,124.54,31,124.35,23Zm17.58,4.65c-.53,24.44-1.06,48.88-1.6,73.72l30.27-1.92h7.59a11.12,11.12,0,0,0,.33-1.56q-.35-34.07-.7-68.13c0-2.95,0-5.9,0-9.5H141.93Z"/><path class="cls-1" d="M859,128.7c.42-3.65-1.34-6.37-3.77-8.81-6.1-6.14-13.66-9.94-21.46-13.29-18.8-8.07-38.45-13.4-58.34-17.95-7.1-1.62-14.21-3.14-21.64-4.78-.24-1.43-.47-2.82-.69-4.18.56-.18.85-.38,1.09-.34,27.07,5.19,53.84,11.47,79.31,22.29,8.11,3.45,16,7.43,22.56,13.48a34.54,34.54,0,0,1,4.42,4.71c4.58,6.17,5.36,12.54.28,19.59-4.59,6.36-11.15,10.37-17.93,14-14.28,7.57-29.57,12.54-45.09,16.8a601,601,0,0,1-73.49,15.28c-21,3-42.05,5.95-63.12,8.56-12.18,1.52-24.46,2.31-36.69,3.45-5.62.52-11.23,1.1-16.85,1.6-2.29.2-4.59.22-7.31.35V183.35c.67,0,1.34,0,2,0,7.58-.6,15.16-1.27,22.75-1.8,7.12-.5,14.25-.71,21.36-1.3,10.38-.86,20.74-1.94,31.11-2.93,3.79-.36,7.59-.62,11.36-1.1,9.66-1.21,19.3-2.53,29-3.78,8.35-1.08,16.75-1.87,25.05-3.24,12.19-2,24.3-4.45,36.46-6.63a323,323,0,0,0,50.68-13c7.35-2.59,14.52-5.55,20.95-10,1.39-1,3.37-1.62,3-4h0c2.74,0,3.61-1.77,4-4.07l0,.05Z"/><path class="cls-2" d="M262.49,3.09l13-1.47c0,2.67,0,5.09,0,7.51-.08,5-.24,9.95-.28,14.92q-.37,47.3-.72,94.59c0,.66-.12,1.32-.18,2-5.28.35-10.57.66-15.85,1.08-5.77.46-11.52,1.11-17.29,1.56-6.42.5-12.85.88-19.6,1.33-3.31-6.92-6.63-13.73-9.8-20.6a8,8,0,0,1-.24-3.43c.25-6.44.6-12.88.82-19.33q.57-16.38,1-32.76.62-22.59,1.16-45.18L228.93,5v99.43l24.53,2.88,7.62,1.11c.1-1.49.25-2.77.26-4.05.05-9.93,0-19.87.13-29.81Q261.92,38.84,262.49,3.09Z"/><path class="cls-2" d="M375.78,75.93c-.5,9.37-1,18.74-1.52,28.38l34.48,2.16c-.43,5.37-.73,10.39-2.27,15.26l-13.39.56c-8.62.34-17.23.71-25.85,1-3.24.11-6.48,0-10.18,0,.41-10.52.89-20.59,1.18-30.67.43-15.57.75-31.14,1.1-46.71q.46-20.61.91-41.23a16.63,16.63,0,0,1,2.83-.61c17.41-.65,34.82-1.27,52.76-1.91-1,4.41-1.07,8.78-3.67,12.51l-34.82,1.46V50.54L409,51.87c-.41,4.11-.79,8-1.17,11.9l-31.52,3.78C376.08,70.76,375.93,73.35,375.78,75.93Z"/><path class="cls-2" d="M290.39,0c6.12.29,12.25.47,18.36.88,10.26.68,20.51,1.49,30.76,2.29,1.78.14,3.55.48,5.44.75V19l-17.63-1c-.25,3.85-.62,7.74-.74,11.63-.73,25.67-1.37,51.35-2.13,77-.16,5.45-.68,10.89-1,16.33L310.3,121V17.15L291.44,15.5C291.08,10.2,290.74,5.1,290.39,0Z"/><path class="cls-2" d="M642.61,11.75a19.89,19.89,0,0,1,3.64-.94c3.77-.28,7.56-.4,11.73-.6.39,6.14.81,12,1.13,18q1.47,27.31,2.89,54.63,1,18.87,1.87,37.75a7.73,7.73,0,0,1-.57,2.18l-17.55,1.46c-.15-1.51-.35-2.78-.38-4.05q-.52-19.14-1-38.28-.64-26.86-1.25-53.71C643,22.67,642.78,17.21,642.61,11.75Z"/><path class="cls-3" d="M214.55,3.29q-.57,22.59-1.16,45.18-.45,16.38-1,32.76c-.22,6.45-.57,12.89-.82,19.33a8,8,0,0,0,.24,3.43c3.17,6.87,6.49,13.68,9.8,20.6,6.75-.45,13.18-.83,19.6-1.33,5.77-.45,11.52-1.1,17.29-1.56,5.28-.42,10.57-.73,15.85-1.08l-7.19,7.83-53.08,4.13L203.7,111.47c.57-14.36,1.2-28.9,1.69-43.44.26-7.62.19-15.25.38-22.88q.42-17.35,1-34.73c.09-2.43.59-4.85,1-7.82Z"/><path class="cls-3" d="M360.24,4.7q-.47,20.61-.91,41.23c-.35,15.57-.67,31.14-1.1,46.71-.29,10.08-.77,20.15-1.18,30.67,3.7,0,6.94.09,10.18,0,8.62-.29,17.23-.66,25.85-1l13.39-.56-6.83,7.68-49.92,2.2c0-5.63-.06-10.73,0-15.83.05-2.47.48-4.93.54-7.4.47-22.55.83-45.1,1.35-67.66.22-9.43.74-18.86,1.14-28.94Z"/><path class="cls-3" d="M290.39,0c.35,5.1.69,10.2,1.05,15.5l18.86,1.65V121L323.42,123l-6.72,8-14-1.94V25.15L283.8,23.46c-.44-5.4-.86-10.61-1.31-16.13Z"/><path class="cls-3" d="M124.35,23c.19,8,.36,15.94.56,23.91.33,12.6.63,25.21,1,37.81.23,7.45.64,14.9,1,23l10.95,12,36.87,4-8.13,8-36.56-4L118.68,115c0-3.25.06-6.72,0-10.18-.36-17.23-.69-34.45-1.17-51.67-.2-7.43-.74-14.85-1.15-22.69Z"/><path class="cls-3" d="M432.17,5.7c.06,9,.18,17.93.17,26.89q-.06,43.86-.18,87.7v4.14l18.11-1.83-6.81,7.55-18.8,2.4V13Z"/><path class="cls-3" d="M557.26,6.75c.07,2,.19,4,.18,6q-.09,53.29-.22,106.59V125l17.92-1.72c-2,2.38-4,4.75-6.19,7.37L549.29,133c.27-20.54.62-40.35.75-60.17s0-39.44,0-59.52Z"/><path class="cls-3" d="M642.61,11.75c.17,5.46.38,10.92.51,16.39q.64,26.85,1.25,53.71.46,19.14,1,38.28c0,1.27.23,2.54.38,4.05l17.55-1.46L657,130.58l-18.91,2.11c0-2.23,0-4,0-5.74-.38-20.21-.73-40.42-1.16-60.63q-.4-19.36-1-38.73c-.08-2.62-.48-5.23-.78-8.26Z"/><path class="cls-3" d="M678.93,13.05c.05,5.81.12,11.63.16,17.44.08,15.79.09,31.57.25,47.35.14,13.27.44,26.54.69,39.81a11.42,11.42,0,0,0,.27,1.69l13.62,2.23-6.32,8.24-14.9-2c-.31-36.05-.61-71.52-.91-107Z"/><path class="cls-3" d="M448.69,75.15V65.69l18.08,1.12c5.59,18.08,11.22,36.25,16.91,54.64l21.77,2.13c-2.21,2.66-4.41,5.31-6.68,8.06L476,129.34c-5.63-18.13-11.25-36.21-16.92-54.48l-9.34-.8Z"/><path class="cls-2" d="M309,163.92h27.14c1.06,3.34,1.78,48.55,1,57.59H311.76a40.62,40.62,0,0,1-.82-4.88c-.42-7.6-.75-15.2-1.05-22.8-.35-8.76-.63-17.52-.94-26.28C308.92,166.58,309,165.6,309,163.92Zm7.5,51.72h14.43c1.26-8.92,1-42.19-.3-46.09-4.92-.67-9.87-2-14.93-.87C314.57,180.53,315.16,212.2,316.45,215.64Z"/><path class="cls-3" d="M574.36,74.7c-.22-2.59-.45-5.17-.67-7.65h18.16L609,122.19c5.52.48,10.77.91,16,1.42,1.79.18,3.56.58,5.33.88l-6.1,7.58-22.78-1.93c-6.1-18-11.24-36.69-17.47-55.44Z"/><path class="cls-3" d="M262.49,3.09q-.51,35.75-1,71.48c-.12,9.94-.08,19.88-.13,29.81,0,1.28-.16,2.56-.26,4.05l-7.62-1.11c.39-34.32.79-68.64,1.18-103.25Z"/><path class="cls-2" d="M544.8,221.75h-5.48c-4.37-19-6-38.46-9.47-57.88.59-.07,1.51-.23,2.43-.3s1.63,0,3,0c1.16,8.13,2.27,16.1,3.42,24.07s1.47,15.91,3.13,23.71l1.21,0c3.19-15.76,6.38-31.52,9.62-47.55h6.51C554.84,183.36,551.2,202.79,544.8,221.75Z"/><path class="cls-2" d="M572.42,217l19.46.8c.06,1.27.11,2.34.17,3.64H565.1c.59-18.92,1.17-37.6,1.75-56.41H592a21.51,21.51,0,0,1,.09,2.34,9.6,9.6,0,0,1-.51,1.69H573.12c-1.67,7.1-.7,14-1.33,21.23h19.26l-.9,4.07L573,195.42A195.94,195.94,0,0,0,572.42,217Z"/><path class="cls-3" d="M853.93,135.53c.36,2.34-1.62,3-3,4-6.43,4.48-13.6,7.44-20.95,10a323,323,0,0,1-50.68,13c-12.16,2.18-24.27,4.63-36.46,6.63-8.3,1.37-16.7,2.16-25.05,3.24-9.66,1.25-19.3,2.57-29,3.78-3.77.48-7.57.74-11.36,1.1-10.37,1-20.73,2.07-31.11,2.93-7.11.59-14.24.8-21.36,1.3-7.59.53-15.17,1.2-22.75,1.8-.66,0-1.33,0-2,0,0-.78.09-1.57.15-2.56,7.3-.49,14.39-.89,21.47-1.48,13.87-1.14,27.72-2.37,41.57-3.6,8.26-.73,16.51-1.47,24.75-2.34,9.55-1,19.1-2.08,28.63-3.3,8.36-1.07,16.71-2.32,25.05-3.6,9-1.38,18-2.63,26.95-4.4,13.62-2.7,27.28-5.36,40.71-8.84,15.21-3.95,30.38-8.3,43.45-17.64C853.19,135.43,853.61,135.54,853.93,135.53Z"/><path class="cls-2" d="M414.19,168.14c-.36,7.36-.69,14.05-1,21.25h19c-.09,1.56-.15,2.63-.26,4.34l-9,.45-8.2.4v22l19.44,1.09.75,3.24H407.78c-.6-18.75-.28-37.58.79-56.9a162.79,162.79,0,0,1,25.5.76c-.3,1.26-.52,2.17-.81,3.4Z"/><path class="cls-3" d="M265.79,198.92V181.8c-3.55-.49-6.76-1.09-10-1.36-5.77-.49-11.57-.63-17.33-1.2-8-.79-16.05-1.88-24.07-2.77-6.89-.77-13.81-1.32-20.69-2.19-8.48-1.08-16.94-2.36-25.41-3.63-6.67-1-13.34-2-20-3.21-10.52-1.88-21-3.92-31.51-5.9a327.49,327.49,0,0,1-49.07-13.1c-9.33-3.32-18.63-6.85-26.64-12.89a43.64,43.64,0,0,1-7.21-6.77c-1.17-1.39-1.4-3.56-2.06-5.37,6.47,9.75,16.47,14.64,26.76,18.92,17.78,7.39,36.38,12.19,55.2,16q23.6,4.82,47.37,8.73c10.79,1.8,21.68,3,32.53,4.36,10.19,1.3,20.38,2.6,30.59,3.71,8.08.88,16.18,1.48,24.28,2.19l17.34,1.49A87.06,87.06,0,0,1,265.79,198.92Z"/><path class="cls-3" d="M693.93,85.48c-.23-5.89-.54-11.77-.65-17.66a175.08,175.08,0,0,1,.45-17.54q9.74,32.91,19.46,65.84l7-.63-5.63,7.6-8.37,1.66c-1-3.31-2.12-6.52-3.07-9.76-2.83-9.63-5.61-19.26-8.44-28.88C694.58,85.85,694.18,85.68,693.93,85.48Z"/><path class="cls-2" d="M450.73,216.06H472v4.55H444.83V164.36h26.1c.08,1.67.16,3.37.27,5.61l-20-.79C450,173.2,449.66,208,450.73,216.06Z"/><path class="cls-2" d="M283.33,215.52l15.72,1.07v4H276.73c-1.76-18.78-1.33-37.33-1.68-56.24,7.51-1.34,14.87-.7,22.64-.34-.11,1.51-.21,2.74-.32,4.12l-15.4.8C280.66,173.51,281.64,209.3,283.33,215.52Z"/><path class="cls-3" d="M725.83,88.87l5.79-36.39,1.23.1v66l16.23-1.95-6,7.72-16.64,2.32C726.22,113.68,726,101.28,725.83,88.87Z"/><path class="cls-2" d="M399,220.93H376.86v-56.3l6.15-1c.28,17.64.55,34.93.83,52.85h15.48C399.15,218.49,399,219.8,399,220.93Z"/><path class="cls-2" d="M486.79,168.38H479.9c-.19-1.59-.35-2.92-.55-4.57h22.31v4.26h-8.29c-.29,17.72-.57,35-.86,52.71l-5.72.43Z"/><path class="cls-2" d="M355.29,216.26h11.59v4.68H349.47c.26-19-.43-37.8.59-56.85H355a10,10,0,0,1,.34,1.85q0,20.37,0,40.76Z"/><path class="cls-2" d="M518.91,222H513.4c-1.67-19.23-.82-38.48-1.11-58.27l5.62.49C518.24,183.52,518.57,202.5,518.91,222Z"/><path class="cls-3" d="M726.15,7.88c-.82,7.19-1.56,14.39-2.51,21.56-1.12,8.49-2.42,17-3.67,25.42a70.79,70.79,0,0,1-2.6,12.19l-3.57-11c1.32-8.95,2.66-17.9,4-26.86a95.85,95.85,0,0,0,1.2-9.81C719.16,14.11,721.93,10.59,726.15,7.88Z"/><path class="cls-3" d="M377.34,23.7V16.15l34.82-1.46L405.7,22.2Z"/><path class="cls-3" d="M375.78,75.93c.15-2.58.3-5.17.49-8.38l31.52-3.78-6.85,7.92c-5.81.66-11.68,1.27-17.53,2C380.77,74.06,377.89,73.7,375.78,75.93Z"/><path class="cls-1" d="M541.12,56.34V61L503,59.67c.51-1.8.9-3.13,1.34-4.67Z"/><path class="cls-3" d="M484.94,74.94c-1.14-2.47-2.27-4.94-3.73-8.09h10Z"/><path class="cls-3" d="M609.19,72.67c-.78-1.47-1.56-3-2.64-5h6.79Z"/><path class="cls-3" d="M857.88,131.45c-.34,2.3-1.21,4.09-4,4.07Z"/><path class="cls-3" d="M859,128.7l-1.11,2.8Z"/><path class="cls-3" d="M726.85,6.22l-.76,1.71Z"/><path class="cls-3" d="M599.1,52.75V27.27c-1.19-.15-2.28-.36-3.38-.4-7.07-.32-14.15-.6-21.23-.89-.12-2.47-.24-4.93-.4-8.09,11-.07,21.57,1.41,32.57,1,1,11.66-.87,22.62-.19,33.88Z"/><path class="cls-3" d="M473.42,52.44c.24-8.39.48-16.78.73-25.33-8.4-2.29-16.76-.55-24.91-1.68v-8l31.9,1v34Z"/><path class="cls-3" d="M170.6,99.43V28.28c-9.88-.77-19.29-.16-28.67-.65V20.24h35.88c0,3.6,0,6.55,0,9.5q.35,34.07.7,68.13a11.12,11.12,0,0,1-.33,1.56Z"/></g></g></svg>