<svg xmlns="http://www.w3.org/2000/svg" viewBox="0 0 201.26 112.09"><defs><style>.cls-1{fill:#f9da1d;}.cls-2{fill:#ec1f26;}.cls-3{fill:#262222;}</style></defs><g id="Layer_2" data-name="Layer 2"><g id="Layer_1-2" data-name="Layer 1"><path class="cls-1" d="M176.28,72.25a.32.32,0,0,1-.28-.31l-.28-33.8a.35.35,0,0,1,.08-.22l2.26-2.43a.33.33,0,0,1,.23-.1H184a.33.33,0,0,1,.3.2l.82,2.19c.66,1.77,1.34,3.55,2,5.32.54,1.4,1.1,2.78,1.65,4.16l.34.83.19-1.28c.3-2,.59-4,.89-6l.09-.66a21.69,21.69,0,0,0,.28-2.41,4.64,4.64,0,0,1,2.32-3.83l.2-.44a.35.35,0,0,1,.27-.2l4.45-.3a.31.31,0,0,1,.31.27q.06.48.12.93c.09.65.18,1.28.23,1.92l.6,8.1c.24,3.36.49,6.71.75,10.07.19,2.43.39,4.85.59,7.28.17,2,.33,4,.49,6a1.83,1.83,0,0,1-.12.71,2.33,2.33,0,0,0-.07.25.31.31,0,0,1-.06.13L198.79,71a.3.3,0,0,1-.21.12l-5.3.73a.31.31,0,0,1-.2-.07.32.32,0,0,1-.11-.24l-.13-8.52q-.3,1.75-.63,3.51a4.49,4.49,0,0,1-.41,1.13c-.07.16-.14.31-.2.47s-.08.12-.09.15l-1.73,2.32a.25.25,0,0,1-.19.12l-2.64.53h-.06a.31.31,0,0,1-.3-.22l-.31-1c-.23-.71-.46-1.41-.67-2.12-.46-1.58-2-6.74-2.26-7.74v.89q0,3.56,0,7.13c0,.4,0,.8,0,1.2l0,.53a.45.45,0,0,1-.07.18l-2,2.6a.3.3,0,0,1-.25.12Z"/><path class="cls-1" d="M197.85,33.24c.12,1,.27,1.91.34,2.84.46,6.05.89,12.11,1.36,18.16.34,4.44.73,8.87,1.08,13.3a3,3,0,0,1-.19.87l-1.9,2.44-5.26.73c-.06-4.1-.12-8-.18-11.93-.4,2.29-.77,4.58-1.2,6.86a9,9,0,0,1-.59,1.54l-1.78,2.4-2.64.53c-.33-1-.67-2.06-1-3.09-.9-3-1.77-6.08-2.67-9.12,0-.08-.15-.13-.23-.19q0,4.83.08,9.68c0,.57,0,1.14-.08,1.71l-2,2.61-4.7-.64c-.1-11.39-.19-22.59-.29-33.81l2.26-2.43H184c.94,2.47,1.88,5,2.85,7.52.79,2,1.61,4.05,2.42,6.07q.63-4.23,1.25-8.48a29.47,29.47,0,0,0,.38-3.1,4.32,4.32,0,0,1,2.25-3.62l.24-.54,4.43-.31m0-.63h0l-1.78.13-2.64.18a.62.62,0,0,0-.53.37l-.17.37a4.9,4.9,0,0,0-2.38,4,20.08,20.08,0,0,1-.28,2.37c0,.22-.06.44-.1.66-.29,2-.58,4-.88,6l0,.16c-.53-1.3-1.05-2.6-1.55-3.91q-1-2.64-2-5.27l-.84-2.24a.64.64,0,0,0-.59-.41h-5.74a.61.61,0,0,0-.46.21l-1,1.1-1.23,1.33a.61.61,0,0,0-.17.43l.29,33.8a.62.62,0,0,0,.54.62l.27,0,4.44.6H181a.62.62,0,0,0,.5-.25l1-1.24,1-1.36a.59.59,0,0,0,.13-.36l0-.53c0-.39,0-.8,0-1.21,0-1.92,0-3.84,0-5.76.08.3.17.59.25.88.46,1.56.91,3.13,1.37,4.69.21.71.43,1.41.66,2.12.11.32.21.65.32,1a.63.63,0,0,0,.6.44l.12,0,.93-.18,1.71-.34a.62.62,0,0,0,.39-.24l1.77-2.4a.39.39,0,0,0,.08-.14c.06-.16.13-.31.2-.46a5,5,0,0,0,.43-1.2,2.33,2.33,0,0,0,0-.28l.08,5.24a.69.69,0,0,0,.22.47.65.65,0,0,0,.41.15h.09l5.25-.73a.63.63,0,0,0,.41-.23l1.91-2.44a.71.71,0,0,0,.11-.25c0-.07,0-.15.07-.23a2.29,2.29,0,0,0,.14-.83q-.24-3-.5-6-.3-3.63-.59-7.26-.37-5-.74-10c-.2-2.72-.4-5.45-.61-8.17,0-.65-.13-1.28-.23-2l-.12-.92a.63.63,0,0,0-.62-.55Z"/><path class="cls-1" d="M100.63,111.78A55.43,55.43,0,0,1,47.38,72.53L31.49,73.76a.32.32,0,0,1-.29-.17l-3.27-6.67a.37.37,0,0,1,0-.15l.16-4c.13-3.24.27-6.49.37-9.74.05-1.34.06-2.68.08-4,0-1.08,0-2.15,0-3.22q.14-5.47.33-11a16.23,16.23,0,0,1,.18-1.63c0-.27.09-.56.13-.87a.3.3,0,0,1,.31-.27l2.17.22,4.55.54a.32.32,0,0,1,.28.31V64.28l7.12.84L44,32.86a.32.32,0,0,1,.27-.31l2.48-.3,3.68-.42A55.75,55.75,0,0,1,151,32.26l6.05-.43h0l.34,0,.24,0A.3.3,0,0,1,158,32l2.67,3.77a.35.35,0,0,1,0,.18v2.93c0,2.75,0,5.59,0,8.39a6.53,6.53,0,0,1-.41,1.84c-.06.17-.11.34-.16.5-.23.77-.49,1.53-.74,2.3l-.32,1a.32.32,0,0,1-.25.21l-1,.14-1.11,1.35.67,1.6c.55,1.33,1.1,2.66,1.67,4L160.66,64c.77,1.77,1.55,3.55,2.31,5.33a1.91,1.91,0,0,0,.16.27,1.14,1.14,0,0,1,.06,1.45l-1.93,2.4a.33.33,0,0,1-.25.11L153.79,73h0A55.41,55.41,0,0,1,100.63,111.78Z"/><path class="cls-1" d="M100.63.63a55.41,55.41,0,0,1,50.21,32l6.27-.44h.06c.14,0,.29,0,.52,0L160.36,36c0,3.78,0,7.55,0,11.31a8.68,8.68,0,0,1-.55,2.26c-.33,1.09-.7,2.17-1.06,3.26l-1.14.16-1.32,1.58c.81,1.92,1.6,3.85,2.43,5.76,1.32,3.07,2.68,6.13,4,9.2.18.43.7.84.26,1.4L161,73.29l-7.19-.61c-.06-.17-.11-.33-.16-.5a55.43,55.43,0,0,1-106,0L31.49,73.45l-3.28-6.67c.18-4.53.38-9.12.54-13.71.08-2.41.06-4.82.12-7.23.09-3.65.19-7.31.32-11,0-.76.19-1.53.31-2.47l2.14.22,4.54.54v31.4l7.75.91c.12-10.83.25-21.67.37-32.6l2.48-.31,3.85-.44a55.41,55.41,0,0,1,50-31.49m0-.63A56,56,0,0,0,50.22,31.54l-.95.1-2.56.29-2.49.31a.63.63,0,0,0-.55.62l-.36,31.45v.46L36.81,64V33.16a.63.63,0,0,0-.55-.62l-2.18-.26L31.72,32l-2.16-.22H29.5a.64.64,0,0,0-.63.55c0,.31-.08.59-.12.87a16.24,16.24,0,0,0-.19,1.66c-.12,3.53-.23,7.12-.32,11,0,1.06,0,2.13,0,3.19,0,1.32,0,2.69-.07,4-.11,3.24-.24,6.53-.37,9.71-.06,1.34-.11,2.67-.17,4a.63.63,0,0,0,.07.3l3.27,6.67a.65.65,0,0,0,.57.35h.05l8.57-.67,7-.55a56.42,56.42,0,0,0,19.8,28,56.05,56.05,0,0,0,67.34,0A56.58,56.58,0,0,0,154,73.32l7,.6h0a.63.63,0,0,0,.49-.24l1.93-2.39a1.46,1.46,0,0,0,0-1.82,1,1,0,0,1-.13-.23Q162.14,66.61,161,64c-.57-1.32-1.15-2.63-1.72-3.94s-1.12-2.65-1.67-4l-.6-1.43.41-.5.51-.6.78-.11.12,0a.61.61,0,0,0,.51-.43c.11-.32.22-.65.32-1,.26-.77.51-1.53.74-2.3.05-.16.1-.33.16-.49a6.66,6.66,0,0,0,.42-1.94c0-2.79,0-5.63,0-8.37V36a.58.58,0,0,0-.12-.36l-1.57-2.23-1.09-1.54a.64.64,0,0,0-.46-.27l-.24,0-.34,0h-.1l-5.84.41A56.29,56.29,0,0,0,100.63,0Z"/><path class="cls-1" d="M4.93,72.17a.3.3,0,0,1-.2-.1l-3.6-4a.32.32,0,0,1-.08-.21v-1c0-.73,0-1.48,0-2.23L1,62.05C.9,57.49.81,52.93.68,48.37c0-1.6-.14-3.17-.23-4.84,0-.76-.09-1.53-.13-2.32A.31.31,0,0,1,.42,41l2.52-2.35,5.91-6.24a.33.33,0,0,1,.23-.09l12.13.31a.32.32,0,0,1,.24.11l5,5.87a.33.33,0,0,1,.07.23L24.72,65.58a.3.3,0,0,1-.1.21l-5.33,5-2.56,2.51a.31.31,0,0,1-.22.09Zm3.6-8.92,8.91-.56V40.81c-1.62-.12-3.23-.12-4.79-.12-1.19,0-2.42,0-3.63,0Z"/><path class="cls-1" d="M9.08,32.59l12.13.31,5,5.88c-.6,9-1.19,17.84-1.78,26.78l-5.34,5.06-2.56,2.51L5,71.86l-3.59-4c0-1,0-2.12,0-3.22C1.25,59.23,1.15,53.79,1,48.36.93,46,.76,43.67.63,41.19l2.53-2.35q3-3.14,5.92-6.25m-.88,31L17.76,63V40.51c-3.12-.24-6.09,0-9-.2C8.54,48,8.37,55.74,8.2,63.59M9.08,32a.63.63,0,0,0-.46.2l-4.78,5L2.7,38.41.63,40.33l-.43.4a.63.63,0,0,0-.2.5c0,.78.09,1.55.13,2.31.1,1.67.19,3.24.23,4.83C.49,52.9.58,57.5.68,62l0,2.74c0,.75,0,1.49,0,2.22v1a.6.6,0,0,0,.16.42l2.92,3.23.68.74a.59.59,0,0,0,.39.2l6.47.71,5.08.56h.07a.67.67,0,0,0,.44-.18l2.56-2.51,2.89-2.74L24.84,66a.62.62,0,0,0,.2-.41l1.29-19.49.49-7.29a.6.6,0,0,0-.15-.45l-3-3.56-2-2.31a.66.66,0,0,0-.47-.23l-6.1-.15L9.1,32ZM8.85,62.91,9.33,41c1.11,0,2.24,0,3.33,0,1.45,0,2.95,0,4.47.09V62.39l-8.28.52Z"/><path class="cls-1" d="M165.4,73.8a.32.32,0,0,1-.21-.08.31.31,0,0,1-.1-.24v-.64c0-.42,0-.79,0-1.16L165,67.21q-.13-7.35-.28-14.68-.14-6.11-.32-12.23c0-.54-.08-1.09-.14-1.67,0-.29-.07-.6-.1-.91a.28.28,0,0,1,.09-.25l2.34-2.4a.28.28,0,0,1,.15-.08l.34-.11a4.09,4.09,0,0,1,.87-.2c.84-.06,1.68-.1,2.57-.14l1.15,0a.33.33,0,0,1,.32.3l.11,1.78c.09,1.31.17,2.6.24,3.89q.47,8.63.92,17.25.3,6,.59,11.93a1.64,1.64,0,0,1-.13.59,1.39,1.39,0,0,0-.06.19l-.06.11-2,2.48a.3.3,0,0,1-.21.12Z"/><path class="cls-1" d="M171.67,34.81c.12,1.94.26,3.8.36,5.66q.47,8.64.91,17.26.31,6,.59,11.92a2.2,2.2,0,0,1-.18.69l-2,2.48-6,.66c0-.7,0-1.25,0-1.81q-.18-9.57-.36-19.15-.14-6.1-.32-12.23c0-.82-.16-1.64-.25-2.6l2.35-2.4A6.68,6.68,0,0,1,168,35c1.19-.09,2.38-.13,3.7-.19m0-.63h0l-1.1,0c-.9,0-1.76.07-2.62.14a3.63,3.63,0,0,0-.93.21,2.07,2.07,0,0,1-.33.1.66.66,0,0,0-.29.17l-2.32,2.36a.74.74,0,0,0-.21.54c0,.31.07.62.1.91.07.58.13,1.12.15,1.65.14,4.69.24,8.57.32,12.23q.15,7.32.28,14.63l.08,4.51c0,.37,0,.74,0,1.15v.65A.64.64,0,0,0,165,74a.61.61,0,0,0,.42.16h.07l2.26-.25,3.71-.42a.58.58,0,0,0,.42-.23l2-2.48a.51.51,0,0,0,.12-.23l.06-.17a1.83,1.83,0,0,0,.14-.71q-.28-6-.59-11.93-.45-8.62-.91-17.25c-.07-1.28-.16-2.55-.24-3.85l-.12-1.82a.63.63,0,0,0-.63-.59Z"/><circle class="cls-2" cx="100.63" cy="56.05" r="55.42"/><path class="cls-1" d="M176.28,72.25a.32.32,0,0,1-.28-.31l-.28-33.8a.35.35,0,0,1,.08-.22l2.26-2.44a.32.32,0,0,1,.23-.09H184a.33.33,0,0,1,.3.2l.82,2.19c.66,1.77,1.34,3.55,2,5.32.54,1.4,1.1,2.78,1.65,4.16l.34.83.19-1.26q.43-3,.89-6.07l.09-.64a22.14,22.14,0,0,0,.28-2.42,4.64,4.64,0,0,1,2.32-3.83l.2-.45a.32.32,0,0,1,.27-.19l4.45-.3a.31.31,0,0,1,.31.27q.06.48.12.93c.09.65.18,1.28.23,1.92.21,2.75.41,5.51.61,8.26.24,3.3.48,6.61.74,9.91.19,2.45.39,4.91.6,7.36.16,2,.33,4,.48,5.94a1.86,1.86,0,0,1-.12.71,2.33,2.33,0,0,0-.07.25.31.31,0,0,1-.06.13L198.79,71a.3.3,0,0,1-.21.12l-5.3.73a.31.31,0,0,1-.2-.07.32.32,0,0,1-.11-.24l-.13-8.52q-.3,1.75-.63,3.51a4.49,4.49,0,0,1-.41,1.13c-.07.16-.14.31-.2.47s-.08.12-.09.15l-1.73,2.32a.25.25,0,0,1-.19.12l-2.64.53h-.06a.31.31,0,0,1-.3-.22l-.31-1c-.23-.71-.46-1.41-.67-2.12-.46-1.58-2-6.74-2.26-7.74v.89q0,3.56,0,7.13c0,.4,0,.8,0,1.2l0,.53a.45.45,0,0,1-.07.18l-2,2.6a.3.3,0,0,1-.25.12Z"/><path class="cls-1" d="M197.85,33.24c.12,1,.27,1.91.34,2.84.46,6.05.89,12.11,1.36,18.16.34,4.44.73,8.87,1.08,13.3a3,3,0,0,1-.19.87l-1.9,2.44-5.26.73c-.06-4.1-.12-8-.18-11.93-.4,2.29-.77,4.58-1.2,6.86a9,9,0,0,1-.59,1.54l-1.78,2.4-2.64.53c-.33-1-.67-2.06-1-3.09-.9-3-1.77-6.08-2.67-9.12,0-.08-.15-.13-.23-.19q0,4.83.08,9.68c0,.57,0,1.14-.08,1.71l-2,2.61-4.7-.64c-.1-11.39-.19-22.59-.29-33.81l2.26-2.43c0,1.84,0,3.68.05,5.51,0-1.83,0-3.67-.05-5.51H184c.94,2.47,1.88,5,2.85,7.52.79,2,1.61,4.05,2.42,6.07q.63-4.23,1.25-8.48a29.47,29.47,0,0,0,.38-3.1,4.32,4.32,0,0,1,2.25-3.62l.24-.54,4.43-.31m0-.63h0l-1.79.13-2.63.18a.62.62,0,0,0-.53.37l-.12.27,0,.1a4.9,4.9,0,0,0-2.38,4,20.08,20.08,0,0,1-.28,2.37c0,.22-.06.44-.1.66-.29,2-.59,4.05-.89,6.08v.1c-.53-1.3-1.05-2.6-1.55-3.91-.68-1.76-1.35-3.53-2-5.28l-.84-2.23a.64.64,0,0,0-.59-.41h-5.74a.64.64,0,0,0-.45.19l0,0-1.18,1.27-1.07,1.16a.61.61,0,0,0-.17.43l.14,15.62.15,18.18a.62.62,0,0,0,.54.62l1.38.19,3.33.45H181a.62.62,0,0,0,.5-.25l2-2.6a.59.59,0,0,0,.13-.36l0-.53c0-.39,0-.8,0-1.21,0-1.92,0-3.84,0-5.76l.25.88c.46,1.57.91,3.13,1.37,4.69.21.71.44,1.41.66,2.12l.32,1a.63.63,0,0,0,.6.44l.12,0,1.16-.23,1.48-.29a.62.62,0,0,0,.39-.24l1.25-1.69.52-.71a.39.39,0,0,0,.08-.14c.06-.16.13-.31.2-.46a5,5,0,0,0,.43-1.2,2.33,2.33,0,0,0,0-.28l.08,5.24a.69.69,0,0,0,.22.47.65.65,0,0,0,.41.15h.09l5.25-.73a.63.63,0,0,0,.41-.23l.9-1.15,1-1.29a1,1,0,0,0,.12-.25c0-.07,0-.15.06-.23a2.27,2.27,0,0,0,.14-.82q-.24-3-.5-6-.3-3.63-.59-7.26-.37-5-.74-10-.3-4.1-.61-8.18c0-.65-.13-1.28-.23-2,0-.3-.08-.6-.12-.92a.63.63,0,0,0-.62-.55Z"/><path class="cls-1" d="M137.35,73.89a.32.32,0,0,1-.21-.08.32.32,0,0,1-.11-.24l.09-5.86c.06-4.43.12-8.78.15-13.14s0-8.63,0-13V35.78a.33.33,0,0,1,.1-.23l2.27-2.07.09-.06.28-.14a2,2,0,0,1,.78-.29q7.32-.54,14.63-1l1.66-.12h0l.33,0,.25,0A.28.28,0,0,1,158,32l2.67,3.77a.35.35,0,0,1,0,.18v2.93c0,2.75,0,5.59,0,8.39a6.53,6.53,0,0,1-.41,1.84c-.06.17-.11.34-.16.5-.23.77-.49,1.53-.74,2.3l-.32,1a.32.32,0,0,1-.25.21l-1,.14-1.11,1.35.67,1.6c.55,1.33,1.1,2.66,1.67,4L160.66,64c.77,1.77,1.55,3.55,2.31,5.33a1.91,1.91,0,0,0,.16.27,1.14,1.14,0,0,1,.06,1.45l-1.93,2.4a.33.33,0,0,1-.25.11L153.79,73a.31.31,0,0,1-.27-.21c-1-3-2-6.07-2.86-9.07-.82-2.69-1.67-5.47-2.58-8.22h-2.49l.09,2.62c.08,2.25.15,4.51.24,6.76,0,.67.06,1.33.1,2,0,.85.1,1.7.12,2.55a2.23,2.23,0,0,1-.21.88l-.12.32a.27.27,0,0,1-.06.12l-1.95,2.32a.33.33,0,0,1-.21.11Zm15.41-26V40.47h-.09a5.31,5.31,0,0,0-.67-.08l-5.27-.22-1.12,0a62.32,62.32,0,0,0,.18,7.82Z"/><path class="cls-1" d="M157.17,32.14c.14,0,.29,0,.52,0L160.36,36c0,3.78,0,7.55,0,11.31a8.68,8.68,0,0,1-.55,2.26c-.33,1.09-.7,2.17-1.06,3.26l-1.14.16-1.32,1.58-.18-.35.18.35c.81,1.92,1.6,3.85,2.43,5.76,1.32,3.07,2.68,6.13,4,9.2.18.43.7.84.26,1.4L161,73.29l-7.19-.61c-1.93-5.68-3.55-11.59-5.52-17.51h-3c0-.41-.08-.81-.11-1.22,0,.41.07.81.11,1.22.11,3.24.21,6.48.33,9.71.06,1.51.19,3,.23,4.54a3.91,3.91,0,0,1-.32,1.1l-1.95,2.33-6.21.73c.08-6.49.2-12.75.24-19s0-12.46,0-18.8l2.28-2.07a3.16,3.16,0,0,1,1-.4c5.42-.41,10.85-.79,16.28-1.17h.06M145.5,48.24h7.58V40.19c-.38,0-.72-.11-1.07-.12l-6.7-.28a61.32,61.32,0,0,0,.19,8.45m11.67-16.73h-.1l-1.17.08c-5,.34-10.08.7-15.12,1.08a2.15,2.15,0,0,0-.91.33l-.26.13a.45.45,0,0,0-.17.11l-1.72,1.56-.55.5a.64.64,0,0,0-.21.47c0,1.94,0,3.87,0,5.8,0,4.26,0,8.67,0,13s-.09,8.58-.16,13.08q0,2.94-.08,5.92a.64.64,0,0,0,.21.48.63.63,0,0,0,.42.16h.07l6.21-.73a.56.56,0,0,0,.41-.22l1.31-1.55.64-.77a.71.71,0,0,0,.13-.22c0-.1.07-.21.11-.31a2.58,2.58,0,0,0,.23-1c0-.85-.07-1.72-.12-2.55,0-.66-.08-1.33-.11-2-.09-2.3-.16-4.6-.24-6.89l-.07-2.17h1.93c.88,2.68,1.7,5.38,2.5,8,.92,3,1.86,6.1,2.87,9.08a.64.64,0,0,0,.55.43l7.19.61h0a.63.63,0,0,0,.49-.24l.95-1.18,1-1.21a1.46,1.46,0,0,0,0-1.82,1,1,0,0,1-.13-.23Q162.14,66.61,161,64c-.57-1.32-1.15-2.64-1.72-4s-1.12-2.65-1.67-4l-.6-1.43.38-.46.54-.64.65-.09.25,0a.61.61,0,0,0,.51-.43c.11-.32.22-.65.32-1,.26-.77.51-1.53.74-2.3.05-.16.1-.33.16-.49a6.66,6.66,0,0,0,.42-1.94c0-2.79,0-5.63,0-8.37V36a.58.58,0,0,0-.12-.36l-2.66-3.77a.64.64,0,0,0-.46-.27l-.24,0-.34,0Zm-11.09,16.1a59.89,59.89,0,0,1-.17-7.17l1,0,5,.22a3.89,3.89,0,0,1,.47,0v6.87Z"/><path class="cls-1" d="M98,73.76a.34.34,0,0,1-.21-.08.35.35,0,0,1-.1-.24V35.69a.32.32,0,0,1,.09-.23l2.37-2.3.21-.14a1.13,1.13,0,0,1,.5-.21l8.46-.63,6.15-.4,2.64-.17a.3.3,0,0,1,.25.14l2.74,3.89a.3.3,0,0,1,.06.18v3c0,2.85,0,5.54,0,8.29a6.38,6.38,0,0,1-.44,1.92l-.1.29c-.27.82-.58,1.63-.88,2.44l-.4,1.06-1.91,2.49,1.23,2.83q2.34,5.37,4.67,10.75a8.27,8.27,0,0,1,.37,1.13c0,.18.09.35.14.52a.3.3,0,0,1,0,.29l-2.11,2.54a.3.3,0,0,1-.25.12l-7.22-.73a.3.3,0,0,1-.27-.22l-5.28-17L106,55.3l-.12.13,0,.59c.06.53.11,1.07.13,1.6.14,3.47.28,6.95.39,10.42,0,.53,0,1,0,1.56,0,.24,0,.48,0,.71a.3.3,0,0,1-.08.2l-2.15,2.38a.3.3,0,0,1-.19.1Zm15.09-25.93.22-7.44a14.29,14.29,0,0,0-3.55-.33h-1.52a20.66,20.66,0,0,1-2.16-.09v1.62c0,1.84,0,3.68.06,5.52a4.91,4.91,0,0,0,.06.67v0Z"/><path class="cls-1" d="M118.1,31.93l2.73,3.89c0,3.84,0,7.55,0,11.26a7.19,7.19,0,0,1-.53,2.11c-.39,1.18-.84,2.34-1.27,3.5l-2,2.56q3,6.87,6,13.74a15.17,15.17,0,0,1,.5,1.62l-2.1,2.54-7.2-.72c-1.78-5.73-3.55-11.44-5.35-17.21L105.91,55l-.33.34c.07.78.16,1.55.2,2.32.14,3.48.28,6.95.39,10.42,0,.75-.06,1.5-.09,2.25l-2.15,2.38L98,73.44V35.69l2.37-2.31a1.81,1.81,0,0,1,.52-.26q4.23-.33,8.45-.62c2.87-.2,5.74-.38,8.77-.57M105.94,48.14h7.45c.07-2.65.15-5.3.23-8a14.6,14.6,0,0,0-3.87-.4h-1.52a17.11,17.11,0,0,1-2.48-.14q0,3.77.07,7.51a8.86,8.86,0,0,0,.12,1M118.1,31.3h0l-2.75.18c-2,.13-4,.25-6,.39-2.6.18-5.36.38-8.46.63a1.38,1.38,0,0,0-.65.25.41.41,0,0,1-.11.07l-.15.11-.91.89-1.46,1.42a.62.62,0,0,0-.19.45V73.44a.65.65,0,0,0,.63.63h.08l4.3-.54,1.64-.21a.61.61,0,0,0,.39-.21l1.74-1.93.41-.45a.64.64,0,0,0,.16-.39c0-.24,0-.47,0-.7,0-.52.07-1.06,0-1.6-.1-3-.22-6.25-.39-10.42,0-.55-.08-1.1-.13-1.63,0-.11,0-.23,0-.35l.69.06,1.45.12,3.08,9.93,2.14,6.87a.61.61,0,0,0,.54.44l4.06.41,3.13.32h.07a.62.62,0,0,0,.48-.23L124,71a.65.65,0,0,0,.12-.59l-.15-.5a8.47,8.47,0,0,0-.38-1.18q-2.28-5.3-4.6-10.58l-1.23-2.82,1.75-2.26a.59.59,0,0,0,.1-.17c.12-.34.25-.68.38-1,.3-.81.62-1.65.9-2.49l.1-.28a6.6,6.6,0,0,0,.46-2c0-2.75,0-5.45,0-8.3,0-1,0-2,0-3a.66.66,0,0,0-.11-.36l-.28-.4-2.46-3.5a.64.64,0,0,0-.51-.26ZM106.48,47.51c0-.14,0-.27,0-.4,0-1.9,0-3.79,0-5.69v-1.1c.65,0,1.28.06,1.84.06h1.52a14.77,14.77,0,0,1,3.22.27l-.1,3.58-.09,3.29Z"/><path class="cls-1" d="M4.93,72.17a.3.3,0,0,1-.2-.1l-3.6-4a.32.32,0,0,1-.08-.21v-1c0-.73,0-1.49,0-2.24L1,62.05C.9,57.49.81,52.93.68,48.37c0-1.6-.14-3.17-.23-4.84,0-.76-.09-1.53-.13-2.32A.31.31,0,0,1,.42,41l2.52-2.35,5.91-6.24a.33.33,0,0,1,.23-.09l12.13.31a.32.32,0,0,1,.24.11l5,5.87a.33.33,0,0,1,.07.23L24.72,65.58a.3.3,0,0,1-.1.21l-5.33,5-2.56,2.51a.31.31,0,0,1-.22.09Zm3.6-8.92,8.91-.56V40.81c-1.62-.12-3.23-.12-4.79-.12-1.19,0-2.42,0-3.63,0Z"/><path class="cls-1" d="M9.08,32.59l12.13.31,5,5.88c-.6,9-1.19,17.84-1.78,26.78l-5.34,5.06-2.56,2.51L5,71.86l-3.59-4c0-1,0-2.12,0-3.22C1.25,59.23,1.15,53.79,1,48.36.93,46,.76,43.67.63,41.19l2.53-2.35q3-3.14,5.92-6.25m-.88,31L17.76,63V40.51c-3.12-.24-6.09,0-9-.2C8.54,48,8.37,55.74,8.2,63.59M9.08,32a.63.63,0,0,0-.46.2l-3.13,3.3L2.7,38.41,1.41,39.6.2,40.73a.63.63,0,0,0-.2.5c0,.78.09,1.55.13,2.31.1,1.66.19,3.24.23,4.83C.49,52.9.58,57.5.68,62l0,2.74c0,.75,0,1.49,0,2.22v1a.6.6,0,0,0,.16.42L3.51,71.2l1,1.08a.59.59,0,0,0,.39.2l11.55,1.27h.07a.67.67,0,0,0,.44-.18l2.51-2.46.05-.05L24.84,66a.58.58,0,0,0,.2-.41l1.32-19.9.46-6.88a.6.6,0,0,0-.15-.45l-2.8-3.3L21.69,32.5a.66.66,0,0,0-.47-.23L9.1,32ZM8.85,62.91,9.33,41c1.11,0,2.24,0,3.33,0,1.45,0,2.95,0,4.47.09V62.39l-2.85.18-5.43.34Z"/><path class="cls-1" d="M31.49,73.76a.32.32,0,0,1-.29-.17l-3.27-6.67a.37.37,0,0,1,0-.15l.16-4c.13-3.24.27-6.49.37-9.74.05-1.34.06-2.68.08-4,0-1.08,0-2.15,0-3.22q.14-5.47.33-11a16.23,16.23,0,0,1,.18-1.63c0-.27.09-.56.13-.87a.3.3,0,0,1,.31-.27l2.17.22,4.55.54a.32.32,0,0,1,.28.31V64.28l7.12.84L44,32.86a.32.32,0,0,1,.27-.31l2.48-.3,4.16-.47a.34.34,0,0,1,.21.08.33.33,0,0,1,.1.23v.79c0,.55,0,1.07,0,1.59s0,1.29,0,1.93c0,.93,0,1.85-.05,2.78l-.23,29.87a3.55,3.55,0,0,1,0,.46l0,.19a.41.41,0,0,1-.08.19l-2.28,2.47a.3.3,0,0,1-.2.1Z"/><path class="cls-1" d="M50.9,32.09c0,.85,0,1.61,0,2.38,0,1.57-.07,3.14-.08,4.71q-.12,14.93-.23,29.87c0,.21,0,.41-.06.62l-2.27,2.48-16.76,1.3-3.28-6.67c.18-4.53.38-9.12.54-13.71.08-2.41.06-4.82.12-7.23.09-3.65.19-7.31.32-11,0-.76.19-1.53.31-2.47l2.14.22,4.54.54v31.4l7.75.91c.12-10.84.25-21.67.37-32.6l2.48-.31,4.12-.47m0-.63h-.07l-.32,0-3.8.43-.39.05-2.1.26a.63.63,0,0,0-.55.62l-.23,20.26-.13,11.65-2.07-.25L36.81,64V33.16a.63.63,0,0,0-.55-.62l-1.63-.2L31.72,32l-.59-.06-1.57-.16H29.5a.65.65,0,0,0-.63.55c0,.31-.08.59-.12.87a16.24,16.24,0,0,0-.19,1.66c-.12,3.49-.23,7.18-.32,11,0,1.06,0,2.13,0,3.2,0,1.32,0,2.68-.07,4-.11,3.24-.24,6.53-.37,9.72-.06,1.33-.11,2.66-.17,4a.63.63,0,0,0,.07.3l3.27,6.67a.65.65,0,0,0,.57.35h.05l6.56-.51,10.2-.8a.62.62,0,0,0,.42-.2L50,71.18l1-1.08a.62.62,0,0,0,.16-.37l0-.18a4.21,4.21,0,0,0,0-.5l.09-12.17q.06-8.85.14-17.7c0-.92,0-1.83,0-2.75,0-.65,0-1.3,0-2s0-1,0-1.61v-.78a.64.64,0,0,0-.21-.47.67.67,0,0,0-.42-.16Z"/><path class="cls-1" d="M74.33,73.46a.29.29,0,0,1-.22-.09.33.33,0,0,1-.1-.23V71.62c0-1.2,0-2.34,0-3.48,0-.4,0-.81.08-1.21s.08-.75.09-1.13c0-2.78.11-5.56.16-8.34q.12-6.51.27-13c0-2,.13-4,.23-6.16,0-1,.08-2,.13-3a.31.31,0,0,1,.09-.22l2.36-2.23a.28.28,0,0,1,.15-.08l.27-.07a2.93,2.93,0,0,1,.68-.13l13-.47L95.2,32a.29.29,0,0,1,.24.11.31.31,0,0,1,.07.27c-.09.37-.15.74-.21,1.1a7.09,7.09,0,0,1-1,3l-2.06,2.4a.33.33,0,0,1-.22.11l-8.65.46v7.87l9.68.41a.29.29,0,0,1,.22.11.32.32,0,0,1,.08.23L93,51.75a.33.33,0,0,1-.08.18l-2.16,2.5a.3.3,0,0,1-.2.1L89,54.71c-1.31.15-2.64.3-4,.47l-.56,0a2.45,2.45,0,0,0-1.58.47l-.45,8.53L93,64.89a.3.3,0,0,1,.22.11.32.32,0,0,1,.08.23l0,.39a20.13,20.13,0,0,1-.7,4.5.41.41,0,0,1-.07.11l-2.15,2.43a.33.33,0,0,1-.23.1Z"/><path class="cls-1" d="M95.2,32.27h0m0,0c-.32,1.39-.33,2.77-1.15,3.95l-2,2.37-9,.48v8.47L93,48c-.12,1.3-.24,2.53-.37,3.76-.69.81-1.39,1.61-2.16,2.5-1.83.21-3.69.4-5.54.64-.83.11-1.74,0-2.4.7-.16,3-.32,5.92-.48,9L93,65.21A21.38,21.38,0,0,1,92.25,70l-2.16,2.43-15.76.69c0-1.77,0-3.38,0-5,0-.78.16-1.56.17-2.34.15-7.12.27-14.25.43-21.37.07-3,.23-5.95.36-9.14l2.36-2.23a5.69,5.69,0,0,1,.89-.2l16.66-.6m0-.63h0l-2.86.1-13.8.5a2.93,2.93,0,0,0-.76.15l-.25.06a.73.73,0,0,0-.3.16l-2.35,2.24a.62.62,0,0,0-.2.43c0,1-.08,2-.13,3-.09,2.13-.18,4.14-.23,6.18q-.15,6.41-.26,12.82-.08,4.28-.17,8.55c0,.36,0,.72-.08,1.1s-.08.82-.09,1.24c0,1.13,0,2.26,0,3.45,0,.51,0,1,0,1.55a.66.66,0,0,0,.19.46.64.64,0,0,0,.44.17h0l6.6-.29,9.17-.4a.62.62,0,0,0,.44-.21l2.16-2.43a.58.58,0,0,0,.13-.23,19.72,19.72,0,0,0,.71-4.56l0-.39a.62.62,0,0,0-.15-.47.66.66,0,0,0-.44-.21l-4.06-.26-6.2-.39v-.07l.43-8a2.44,2.44,0,0,1,1.3-.31l.58,0c1.3-.17,2.64-.32,3.93-.46l1.59-.18a.67.67,0,0,0,.41-.22l1.17-1.36,1-1.14a.58.58,0,0,0,.15-.35L93.66,48a.62.62,0,0,0-.15-.47.67.67,0,0,0-.45-.22l-2.42-.1-7-.29V39.67l.28,0L92,39.22a.63.63,0,0,0,.44-.22l1-1.21,1-1.16a.1.1,0,0,0,0-.05,7.25,7.25,0,0,0,1-3.08c.06-.35.12-.69.19-1a.58.58,0,0,0,0-.19.63.63,0,0,0-.62-.63Zm0,1.26h0Z"/><path class="cls-1" d="M59.43,72.63a.32.32,0,0,1-.27-.31V39.81l-5.68-.51A.3.3,0,0,1,53.2,39l-.42-5.09a.3.3,0,0,1,.1-.25l2.5-2.32a.3.3,0,0,1,.21-.08l1.84.08c1.32,0,2.65.11,4,.2,3,.2,6,.43,9,.67l.68.05c.39,0,.78.09,1.18.15l.55.09a.31.31,0,0,1,.28.31v4.75a.33.33,0,0,1-.1.23.36.36,0,0,1-.22.09l-5.27-.3c0,.28,0,.57-.07.85-.06.83-.12,1.66-.15,2.5-.1,3.54-.19,7.09-.29,10.64q-.18,6.84-.38,13.68c0,1.19-.12,2.39-.21,3.56,0,.53-.08,1.07-.11,1.61a.3.3,0,0,1-.08.18l-2.12,2.52a.32.32,0,0,1-.24.11Z"/><path class="cls-1" d="M55.59,31.58c1.93.09,3.87.15,5.8.28,3.24.22,6.47.47,9.71.72.57.05,1.12.16,1.72.24v4.75l-5.57-.31c-.08,1.21-.19,2.44-.23,3.67q-.34,12.17-.67,24.32c-.06,1.72-.22,3.44-.33,5.16L63.9,72.93l-4.42-.61V39.53l-6-.54c-.14-1.7-.27-3.35-.42-5.09l2.5-2.32m0-.63a.63.63,0,0,0-.43.17l-2.41,2.24-.08.08a.59.59,0,0,0-.2.51l.16,2,.25,3a.64.64,0,0,0,.57.58l3.34.3,2.06.18V72.32a.63.63,0,0,0,.54.62l4.42.61h.09a.62.62,0,0,0,.48-.23l2.12-2.52a.61.61,0,0,0,.15-.36c0-.54.07-1.08.11-1.62.09-1.16.18-2.37.21-3.56q.21-6.79.38-13.58L67.65,41c0-.83.09-1.68.15-2.49,0-.18,0-.36,0-.54l4,.22,1,.06h0a.61.61,0,0,0,.43-.17.63.63,0,0,0,.2-.46V32.82a.63.63,0,0,0-.54-.62l-.55-.09c-.4-.06-.8-.12-1.21-.15l-.77-.06c-2.93-.23-6-.47-8.95-.67-1.34-.09-2.7-.14-4-.2L55.62,31Z"/><path class="cls-1" d="M165.4,73.8a.32.32,0,0,1-.21-.08.31.31,0,0,1-.1-.24v-.64c0-.42,0-.79,0-1.16L165,67.21q-.13-7.35-.28-14.68-.14-6.11-.32-12.23c0-.54-.08-1.1-.15-1.69,0-.28-.06-.58-.09-.89a.28.28,0,0,1,.09-.25l2.34-2.4a.28.28,0,0,1,.15-.08l.34-.11a4.8,4.8,0,0,1,.87-.2c.84-.06,1.68-.1,2.57-.14l1.15,0a.33.33,0,0,1,.32.3l.11,1.78c.09,1.31.17,2.6.24,3.89q.47,8.63.92,17.25.3,6,.59,11.93a1.64,1.64,0,0,1-.13.59,1.39,1.39,0,0,0-.06.19l-.06.11-2,2.48a.3.3,0,0,1-.21.12Z"/><path class="cls-1" d="M171.67,34.81c.12,1.94.26,3.8.36,5.66q.47,8.64.91,17.26.31,6,.59,11.92a2.2,2.2,0,0,1-.18.69l-2,2.48-6,.66c0-.7,0-1.25,0-1.81q-.18-9.57-.36-19.15-.14-6.1-.32-12.23c0-.82-.16-1.64-.25-2.6l2.35-2.4A6.68,6.68,0,0,1,168,35c1.19-.09,2.38-.13,3.7-.19m0-.63h0l-1.09,0c-.91,0-1.77.07-2.63.14a3.63,3.63,0,0,0-.93.21l-.33.11a.56.56,0,0,0-.29.16L164,37.23a.67.67,0,0,0-.2.52c0,.31.07.61.1.91.07.58.13,1.12.15,1.65.14,4.69.24,8.57.32,12.23q.15,7.32.28,14.63l.08,4.51c0,.37,0,.74,0,1.15v.65A.64.64,0,0,0,165,74a.61.61,0,0,0,.42.16h.07l2.5-.28,3.47-.39a.58.58,0,0,0,.42-.23l.84-1,1.14-1.44a.51.51,0,0,0,.12-.23l.06-.17a1.83,1.83,0,0,0,.14-.71q-.28-6-.59-11.93-.45-8.62-.91-17.25c-.07-1.28-.16-2.56-.24-3.86l-.12-1.81a.63.63,0,0,0-.63-.59Z"/><path class="cls-3" d="M178.29,35.7H184c.94,2.47,1.88,5,2.85,7.52.79,2,1.61,4.05,2.42,6.07.37,1.16.75,2.31,1.13,3.47a23.43,23.43,0,0,0,.82-3.85c.39-2.68.8-5.35,1.16-8,.3-2.26.53-4.54.79-6.81l0,0,.24-.54,4.43-.31c.12,1,.27,1.91.34,2.84.46,6.05.89,12.11,1.36,18.16.34,4.44.73,8.87,1.08,13.3a3,3,0,0,1-.19.87l-5.12.62V48.19l-.39,0L193.1,59.65c-.4,2.29-.77,4.58-1.2,6.86a9,9,0,0,1-.59,1.54l-2.2.2L183,47.46a54.22,54.22,0,0,0-.14,5.54c0,1.86.13,3.72.2,5.58q0,4.83.08,9.68c0,.57,0,1.14-.08,1.71l-4.3-.7c0-.24-.08-.38-.09-.53-.07-4.19-.17-8.39-.21-12.58,0-5-.06-10-.08-14.95C178.33,39.38,178.3,37.54,178.29,35.7Z"/><path class="cls-3" d="M139.87,33.71a3.16,3.16,0,0,1,1-.4c5.42-.41,10.85-.79,16.28-1.17a5.63,5.63,0,0,1,.58,0L160.36,36c0,3.78,0,7.55,0,11.31a8.68,8.68,0,0,1-.55,2.26c-.33,1.09-.7,2.17-1.06,3.26l-1.14.16h-2.15l.83,1.58c.81,1.92,1.6,3.85,2.43,5.76,1.32,3.07,2.68,6.13,4,9.2.18.43.7.84.26,1.4-.56-.09-1.12-.22-1.68-.27-1.66-.16-3.31-.3-5.06-.45-1.8-5.8-3.59-11.54-5.41-17.41h-5.74c.07.78.14,1.6.22,2.41.11,3.24.21,6.48.33,9.71.06,1.51.19,3,.23,4.54a3.91,3.91,0,0,1-.32,1.1l-5.66.55V69.26q0-16.83.07-33.66C139.92,35,139.89,34.34,139.87,33.71Zm13.21,14.53h2.33c-.22-3.56.38-7,.06-10.7-3.48.14-6.83-.33-10.29-.31l.13,2.56a61.32,61.32,0,0,0,.19,8.45Z"/><path class="cls-3" d="M105.58,55.31c.07.78.16,1.55.2,2.32.14,3.48.28,6.95.39,10.42,0,.75-.06,1.5-.09,2.25l-5.72.58V69.57q0-13.84.06-27.69c0-2.84,0-5.67-.06-8.5a1.81,1.81,0,0,1,.52-.26q4.23-.33,8.45-.62c2.87-.2,5.74-.38,8.77-.57l2.73,3.89c0,3.84,0,7.55,0,11.26a7.19,7.19,0,0,1-.53,2.11c-.39,1.18-.84,2.34-1.27,3.5h-3.16L117,55.25q3,6.87,6,13.74a15.17,15.17,0,0,1,.5,1.62l-6.87-.67c-1.8-5.81-3.57-11.55-5.34-17.26l-5.71-.35Zm7.81-7.17h2.44V37.41l-10.08-.33v2.53q0,3.77.07,7.51a8.86,8.86,0,0,0,.12,1Z"/><path class="cls-3" d="M3.16,38.84q3-3.14,5.92-6.25l12.13.31,5,5.88c-.6,9-1.19,17.84-1.78,26.78l-5.34,5.06L7.43,69.37,4,65.59c-.11-2.55-.24-4.91-.31-7.26-.13-4-.22-8-.33-11.94C3.27,43.87,3.22,41.36,3.16,38.84Zm5.55,1.47L8.2,63.59,17.76,63h2.4a3.66,3.66,0,0,0,.1-.49Q20.16,51.74,20,41c0-.93,0-1.86,0-3H8.71Z"/><path class="cls-3" d="M46.78,32.56l4.12-.47c0,.85,0,1.61,0,2.38,0,1.57-.07,3.14-.08,4.71q-.12,14.93-.23,29.87c0,.21,0,.41-.06.62-1.67.12-3.34.21-5,.34-1.82.15-3.64.35-5.46.5-2,.16-4.06.27-6.19.42-1-2.19-2.1-4.34-3.1-6.51a2.43,2.43,0,0,1-.07-1.08c.08-2,.19-4.07.26-6.11q.18-5.16.31-10.34.19-7.14.37-14.27l4.54.54v31.4l7.75.91,2.4.35c0-.47.08-.87.09-1.27,0-3.14,0-6.28,0-9.42C46.55,47.61,46.67,40.08,46.78,32.56Z"/><path class="cls-3" d="M82.56,55.56c-.16,3-.32,5.92-.48,9L93,65.21A21.38,21.38,0,0,1,92.25,70L88,70.2c-2.72.11-5.44.23-8.16.32-1,0-2,0-3.22,0,.13-3.32.28-6.5.37-9.68.14-4.92.24-9.84.35-14.75q.15-6.51.29-13a5.69,5.69,0,0,1,.89-.2l16.66-.6c-.32,1.39-.33,2.77-1.15,3.95l-11,.46V47.54L93,48l-.37,3.76-10,1.2Z"/><path class="cls-3" d="M55.59,31.58c1.93.09,3.87.15,5.8.28,3.24.22,6.47.47,9.71.72.57.05,1.12.16,1.72.24v4.75l-5.57-.31c-.08,1.21-.19,2.44-.23,3.67q-.34,12.17-.67,24.32c-.06,1.72-.22,3.44-.33,5.16l-4.14-.61V37l-6-.52Z"/><path class="cls-3" d="M166.82,35.29A6.68,6.68,0,0,1,168,35c1.19-.09,2.38-.13,3.7-.19.12,1.94.26,3.8.36,5.66q.47,8.64.91,17.26.31,6,.59,11.92a2.2,2.2,0,0,1-.18.69l-5.54.46c-.05-.48-.11-.88-.12-1.28q-.16-6-.32-12.09l-.39-17C166.94,38.74,166.87,37,166.82,35.29Z"/><path class="cls-1" d="M31.64,32.62q-.18,7.14-.37,14.27-.14,5.18-.31,10.34c-.07,2-.18,4.07-.26,6.11a2.43,2.43,0,0,0,.07,1.08c1,2.17,2.05,4.32,3.1,6.51,2.13-.15,4.16-.26,6.19-.42,1.82-.15,3.64-.35,5.46-.5,1.66-.13,3.33-.22,5-.34l-2.27,2.48-16.76,1.3-3.28-6.67c.18-4.53.38-9.12.54-13.71.08-2.41.06-4.82.12-7.23.09-3.65.19-7.31.32-11,0-.76.19-1.53.31-2.47Z"/><path class="cls-1" d="M77.65,33.07q-.15,6.51-.29,13c-.11,4.91-.21,9.83-.35,14.75-.09,3.18-.24,6.36-.37,9.68,1.17,0,2.19,0,3.22,0,2.72-.09,5.44-.21,8.16-.32L92.25,70l-2.16,2.43-15.76.69c0-1.77,0-3.38,0-5,0-.78.16-1.56.17-2.34.15-7.12.27-14.25.43-21.37.07-3,.23-5.95.36-9.14Z"/><path class="cls-1" d="M55.59,31.58l.33,4.9,6,.52V69.8l4.14.61L63.9,72.93l-4.42-.61V39.52l-6-.53-.42-5.09Z"/><path class="cls-1" d="M3.16,38.84c.06,2.52.11,5,.17,7.55.11,4,.2,8,.33,11.94.07,2.35.2,4.71.31,7.26l3.46,3.78,11.64,1.25-2.56,2.51L5,71.86l-3.59-4c0-1,0-2.12,0-3.22C1.25,59.23,1.15,53.79,1,48.36.93,46,.76,43.67.63,41.19Z"/><path class="cls-1" d="M100.36,33.38c0,2.83.06,5.66.06,8.5q0,13.84-.06,27.69v1.31l5.72-.58-2.15,2.38L98,73.44V35.69Z"/><path class="cls-1" d="M139.87,33.71c0,.63,0,1.26,0,1.89q0,16.83-.07,33.66v1.81l5.66-.55-1.95,2.33-6.21.73c.08-6.49.2-12.75.24-19s0-12.46,0-18.8Z"/><path class="cls-1" d="M166.82,35.29c.05,1.73.12,3.45.16,5.18l.39,17q.15,6,.32,12.09c0,.4.07.8.12,1.28l5.54-.46-2,2.48-6,.66c0-.7,0-1.25,0-1.81q-.18-9.57-.36-19.15-.14-6.1-.32-12.23c0-.82-.16-1.64-.25-2.6Z"/><path class="cls-1" d="M178.29,35.7c0,1.84,0,3.68.05,5.51,0,5,0,10,.08,14.95,0,4.19.14,8.39.21,12.58,0,.15.05.29.09.53l4.3.7-2,2.61-4.7-.64c-.1-11.39-.19-22.59-.29-33.81Z"/><path class="cls-1" d="M105.58,55.31v-3l5.71.35c1.77,5.71,3.54,11.45,5.34,17.26l6.87.67-2.11,2.54-7.19-.72c-1.78-5.73-3.55-11.44-5.35-17.21L105.91,55Z"/><path class="cls-1" d="M145.27,55.17c-.08-.81-.15-1.63-.22-2.41h5.74c1.82,5.87,3.61,11.61,5.41,17.41,1.75.15,3.4.29,5.06.45.56,0,1.12.18,1.68.27L161,73.29l-7.19-.61c-1.93-5.68-3.55-11.59-5.52-17.51Z"/><path class="cls-1" d="M46.78,32.56c-.11,7.52-.23,15-.32,22.57,0,3.14,0,6.28,0,9.42,0,.4-.06.8-.09,1.27l-2.4-.35.37-32.6Z"/><path class="cls-1" d="M183,58.58c-.07-1.86-.17-3.72-.2-5.58a54.22,54.22,0,0,1,.14-5.54l6.15,20.79,2.2-.2-1.78,2.4-2.64.53c-.33-1-.67-2.06-1-3.09-.9-3-1.77-6.08-2.67-9.12C183.23,58.69,183.1,58.64,183,58.58Z"/><path class="cls-1" d="M193.1,59.65l1.83-11.49.39,0V69l5.12-.62-1.9,2.44-5.26.73C193.22,67.48,193.16,63.56,193.1,59.65Z"/><path class="cls-1" d="M193.2,34.07c-.26,2.27-.49,4.55-.79,6.81-.36,2.68-.77,5.35-1.16,8a23.43,23.43,0,0,1-.82,3.85c-.38-1.16-.76-2.31-1.13-3.47q.63-4.23,1.25-8.48a29.47,29.47,0,0,0,.38-3.1A4.35,4.35,0,0,1,193.2,34.07Z"/><path class="cls-1" d="M83.05,39.07V36.68l11-.46-2,2.37Z"/><path class="cls-1" d="M82.56,55.56l.15-2.64,10-1.2-2.16,2.5c-1.83.21-3.69.4-5.54.64C84.13,55,83.22,54.86,82.56,55.56Z"/><path class="cls-1" d="M117,55.25l-1.18-2.56H119Z"/><path class="cls-1" d="M156.26,54.53,155.43,53h2.15Z"/><path class="cls-1" d="M193.42,33.55l-.24.54Z"/><path class="cls-1" d="M153.08,48.24V40.19c-.38,0-.72-.11-1.07-.12l-6.7-.28-.13-2.56c3.46,0,6.81.45,10.29.31.32,3.68-.28,7.14-.06,10.7Z"/><path class="cls-1" d="M113.39,48.14c.07-2.65.15-5.3.23-8-2.65-.72-5.29-.17-7.87-.53V37.08l10.08.33V48.14Z"/><path class="cls-1" d="M17.76,63V40.51c-3.12-.24-6.09,0-9-.2V38H20c0,1.14,0,2.07,0,3q.11,10.77.22,21.52a3.66,3.66,0,0,1-.1.49Z"/><path class="cls-3" d="M71.64,97.05c-.65-.64-.89-1.76-.89-4V87.59c0-2.22.24-3.34.89-4a2.44,2.44,0,0,1,1.82-.68,2.37,2.37,0,0,1,1.8.68c.54.56.9,1.4.9,3.72v0H74.7v-.06c0-1.58,0-3-1.24-3s-1.26,1.44-1.26,3v6.07c0,1.61,0,3,1.26,3s1.28-1.5,1.28-3.31V93h1.44V93c0,2.23-.26,3.37-.9,4a2.78,2.78,0,0,1-3.64,0Z"/><path class="cls-3" d="M78.71,97.05c-.64-.64-.88-1.76-.88-4V87.59c0-2.22.24-3.34.88-4a2.47,2.47,0,0,1,1.82-.68,2.43,2.43,0,0,1,1.8.68c.64.64.9,1.76.9,4v5.47c0,2.23-.26,3.35-.9,4a2.35,2.35,0,0,1-1.8.68A2.4,2.4,0,0,1,78.71,97.05Zm3.06-3.69V87.29c0-1.72,0-3-1.24-3s-1.26,1.28-1.26,3v6.07c0,1.73,0,3,1.26,3S81.77,95.09,81.77,93.36Z"/><path class="cls-3" d="M85.28,97.49l0-1.46V84.63l0-1.46h1.46l0,1.46V96.21h3v1.28Z"/><path class="cls-3" d="M91.09,97.49l0-1.46V84.63l0-1.46h1.46l0,1.46V96.21h3v1.28Z"/><path class="cls-3" d="M98.34,90.68v5.53h3.25v1.28H96.9l0-1.46V84.63l0-1.46h4.63v1.28H98.34v4.91h2.58v1.32Z"/><path class="cls-3" d="M104.07,97.05c-.64-.64-.88-1.76-.88-4V87.59c0-2.22.24-3.34.88-4a2.44,2.44,0,0,1,1.82-.68,2.4,2.4,0,0,1,1.81.68c.54.56.9,1.4.9,3.72v0h-1.46v-.06c0-1.58,0-3-1.25-3s-1.26,1.44-1.26,3v6.07c0,1.61,0,3,1.26,3s1.28-1.5,1.28-3.31V93h1.45V93c0,2.23-.26,3.37-.9,4a2.79,2.79,0,0,1-3.65,0Z"/><path class="cls-3" d="M112.9,84.45V96l0,1.46h-1.44l0-1.46V84.45h-2V83.17H115v1.28Z"/><path class="cls-3" d="M117.83,83.17l0,1.46V96l0,1.46h-1.46l0-1.46V84.63l0-1.46Z"/><path class="cls-3" d="M119.24,83.17h1.48L122,92.6c.08.58.16,1.34.2,1.83h.08c0-.49.12-1.25.2-1.83l1.34-9.43h1.43l-2.23,14.32h-1.6Z"/><path class="cls-3" d="M128.15,90.68v5.53h3.25v1.28h-4.69l0-1.46V84.63l0-1.46h4.63v1.28h-3.19v4.91h2.58v1.32Z"/></g></g></svg>